<svg xmlns="http://www.w3.org/2000/svg" viewBox="0 0 400 520" width="400" height="520">
  <defs>
    <radialGradient id="cl-bg" cx="50%" cy="38%" r="65%">
      <stop offset="0%" stop-color="#eef3f6"/>
      <stop offset="55%" stop-color="#dbe6ee"/>
      <stop offset="100%" stop-color="#c9d9e6"/>
    </radialGradient>
    <linearGradient id="cl-bottle" x1="0" y1="0" x2="1" y2="1">
      <stop offset="0%" stop-color="#ffffff" stop-opacity="0.95"/>
      <stop offset="100%" stop-color="#dce8f0" stop-opacity="0.85"/>
    </linearGradient>
    <linearGradient id="cl-liquid" x1="0" y1="0" x2="0" y2="1">
      <stop offset="0%" stop-color="#eaf1f5"/>
      <stop offset="100%" stop-color="#d3e2ec"/>
    </linearGradient>
  </defs>
  <rect width="400" height="520" fill="url(#cl-bg)"/>
  <circle cx="90" cy="90" r="10" fill="#ffffff" opacity="0.6"/>
  <circle cx="330" cy="140" r="6" fill="#ffffff" opacity="0.5"/>
  <circle cx="345" cy="380" r="14" fill="#ffffff" opacity="0.45"/>
  <circle cx="70" cy="420" r="8" fill="#ffffff" opacity="0.5"/>
  <ellipse cx="200" cy="470" rx="95" ry="16" fill="#9fb6c6" opacity="0.35"/>
  <rect x="130" y="190" width="140" height="260" rx="28" fill="url(#cl-bottle)" stroke="#ffffff" stroke-width="1.5"/>
  <rect x="140" y="330" width="120" height="118" rx="20" fill="url(#cl-liquid)" opacity="0.6"/>
  <rect x="160" y="150" width="80" height="55" rx="10" fill="#b9c9d4"/>
  <rect x="150" y="120" width="100" height="40" rx="14" fill="#e9eef1" stroke="#c3d2db" stroke-width="1.5"/>
  <rect x="178" y="70" width="44" height="60" rx="10" fill="#eef2f4" stroke="#c3d2db" stroke-width="1.5"/>
  <path d="M222 82 h58 a10 10 0 0 1 10 10 v6 a10 10 0 0 1 -10 10 h-58 z" fill="#f4f6f7" stroke="#c3d2db" stroke-width="1.5"/>
  <rect x="152" y="255" width="96" height="118" rx="4" fill="#ffffff" opacity="0.92" stroke="#e3ebef"/>
  <text x="200" y="298" text-anchor="middle" font-family="'Playfair Display', serif" font-size="21" letter-spacing="2" fill="#1c2b33">VESPER</text>
  <line x1="172" y1="310" x2="228" y2="310" stroke="#c9a96a" stroke-width="1"/>
  <text x="200" y="330" text-anchor="middle" font-family="'Jost', sans-serif" font-size="8.5" letter-spacing="1" fill="#4b5c66">GENTLE FACIAL</text>
  <text x="200" y="342" text-anchor="middle" font-family="'Jost', sans-serif" font-size="8.5" letter-spacing="1" fill="#4b5c66">CLEANSER</text>
  <text x="200" y="362" text-anchor="middle" font-family="'Jost', sans-serif" font-size="7" letter-spacing="0.5" fill="#7c8a92">200ML / 6.7 FL.OZ.</text>
</svg>
