<svg xmlns="http://www.w3.org/2000/svg" viewBox="0 0 400 520" width="400" height="520">
  <defs>
    <radialGradient id="es-bg" cx="50%" cy="35%" r="65%">
      <stop offset="0%" stop-color="#f4ece0"/>
      <stop offset="55%" stop-color="#e9dbc7"/>
      <stop offset="100%" stop-color="#ddccb2"/>
    </radialGradient>
    <linearGradient id="es-glass" x1="0" y1="0" x2="1" y2="1">
      <stop offset="0%" stop-color="#f3e9f6"/>
      <stop offset="45%" stop-color="#eaf0f6"/>
      <stop offset="100%" stop-color="#f6ecd8"/>
    </linearGradient>
    <linearGradient id="es-gold" x1="0" y1="0" x2="1" y2="0">
      <stop offset="0%" stop-color="#e7c988"/>
      <stop offset="100%" stop-color="#a9824c"/>
    </linearGradient>
  </defs>
  <rect width="400" height="520" fill="url(#es-bg)"/>
  <ellipse cx="200" cy="30" rx="220" ry="70" fill="#d8c6a6" opacity="0.35"/>
  <ellipse cx="200" cy="450" rx="130" ry="26" fill="#c7b088" opacity="0.4"/>
  <path d="M60 420 q100 40 280 0 q-60 60 -140 60 q-80 0 -140 -60z" fill="#d9c4a1" opacity="0.5"/>
  <rect x="150" y="180" width="100" height="220" rx="26" fill="url(#es-glass)" stroke="#efe3cd" stroke-width="1.5"/>
  <rect x="176" y="90" width="48" height="70" rx="10" fill="#fdfaf5" stroke="#e5d8bd" stroke-width="1.5"/>
  <rect x="168" y="60" width="64" height="45" rx="18" fill="url(#es-gold)"/>
  <rect x="192" y="35" width="16" height="35" rx="8" fill="#f4ece0" stroke="#d9c19a" stroke-width="1.2"/>
  <text x="200" y="255" text-anchor="middle" font-family="'Playfair Display', serif" font-size="15" letter-spacing="1.5" fill="#8a6a2f">V</text>
  <line x1="185" y1="265" x2="215" y2="265" stroke="#c9a96a" stroke-width="0.8"/>
  <text x="200" y="284" text-anchor="middle" font-family="'Playfair Display', serif" font-size="13" letter-spacing="1.5" fill="#5a4a33">VESPER</text>
  <text x="200" y="330" text-anchor="middle" font-family="'Jost', sans-serif" font-size="8" letter-spacing="1" fill="#786646">Eye Serum</text>
</svg>
